<svg
    viewBox="11 7 24 24"
    xmlns="http://www.w3.org/2000/svg"
>
  <path
    d="M11.5164 14.1184C12.3283 10.2043 14.8263 8.02423 18.7228 7.36566C21.6032 6.87893 24.4847 6.87276 27.3603 7.37932C31.3723 8.08603 33.7841 10.3932 34.5525 14.3665C35.1461 17.4372 35.1554 20.5406 34.5431 23.6084C33.7218 27.4954 31.1593 29.8947 27.2772 30.5509C24.3968 31.0376 21.5153 31.0437 18.6397 30.5372C14.6278 29.8305 12.2052 27.4081 11.4369 23.4349C10.813 20.3439 10.873 17.2209 11.5164 14.1183Z"
    fill="#372aac"
  />

  <path
    fill="#fff"
    fill-rule="evenodd"
    clip-rule="evenodd"
    d="M23.4171 13.6378C25.9551 13.8307 27.9868 15.8346 28.2234 18.3601H23.4171V13.6378ZM18.8015 15.7534C19.6627 14.585 20.9981 13.7879 22.5238 13.6457V18.167L18.8015 15.7534ZM23.0151 12.5208C19.5467 12.5208 16.735 15.3324 16.735 18.8008C16.735 22.2691 19.5467 25.0808 23.0151 25.0808C23.753 25.0808 24.461 24.9531 25.1188 24.7193L24.78 23.7806C24.2137 23.9834 23.6166 24.0867 23.015 24.0861C20.1257 24.0861 17.7833 21.7438 17.7833 18.8544C17.7833 18.0136 17.982 17.2193 18.3344 16.5154L22.5237 19.2564L28.2317 19.2535C28.132 20.5737 27.5424 21.7571 26.6442 22.6225L27.3582 23.3366C28.5517 22.1935 29.2951 20.584 29.2951 18.8008C29.2951 15.3324 26.4834 12.5208 23.0151 12.5208Z"
  />
</svg>
