<svg width="44" height="44" viewBox="0 0 44 44" fill="none" xmlns="http://www.w3.org/2000/svg">
<path d="M24.4347 3.22183C28.7305 -1.07394 35.6956 -1.07394 39.9914 3.22183C44.2871 7.51759 44.2871 14.4827 39.9914 18.7785L37.1632 21.6066L39.9914 24.4347C44.2871 28.7305 44.2871 35.6956 39.9914 39.9914C35.6956 44.2871 28.7305 44.2871 24.4347 39.9914L21.6066 37.1632L18.7785 39.9914C14.4827 44.2871 7.51759 44.2871 3.22183 39.9914C-1.07394 35.6956 -1.07394 28.7305 3.22183 24.4347L6.04995 21.6066L3.22183 18.7785C-1.07394 14.4827 -1.07394 7.51759 3.22183 3.22183C7.51759 -1.07394 14.4827 -1.07394 18.7785 3.22183L21.6066 6.04995L24.4347 3.22183Z" fill="url(#paint0_linear_8_2)"/>
<defs>
<linearGradient id="paint0_linear_8_2" x1="3.22167" y1="39.9912" x2="39.9912" y2="3.22166" gradientUnits="userSpaceOnUse">
<stop stop-color="#372AAC"/>
<stop offset="1" stop-color="#161233"/>
</linearGradient>
</defs>
</svg>
