<svg width="243" height="67" viewBox="0 0 243 67" fill="none" xmlns="http://www.w3.org/2000/svg">
<mask id="path-1-outside-1_6_24" maskUnits="userSpaceOnUse" x="55" y="26" width="161" height="39" fill="black">
<rect fill="white" x="55" y="26" width="161" height="39"/>
<path d="M56.88 63V27.96H65.28L74.352 55.08C74.256 53.896 74.144 52.536 74.016 51C73.888 49.432 73.776 47.88 73.68 46.344C73.616 44.776 73.584 43.448 73.584 42.36V27.96H79.92V63H71.52L62.544 35.88C62.64 36.904 62.736 38.12 62.832 39.528C62.928 40.936 63.008 42.36 63.072 43.8C63.168 45.24 63.216 46.52 63.216 47.64V63H56.88ZM91.4212 63V27.96H113.021V34.104H98.4772V41.976H111.341V48.12H98.4772V56.856H113.021V63H91.4212ZM122.122 63L131.53 44.904L122.746 27.96H130.666L134.314 35.64C134.666 36.344 134.954 36.984 135.178 37.56C135.434 38.136 135.594 38.552 135.658 38.808C135.722 38.552 135.866 38.136 136.09 37.56C136.314 36.984 136.586 36.344 136.906 35.64L140.65 27.96H148.378L139.594 44.904L149.003 63H141.082L136.858 54.36C136.538 53.656 136.25 53 135.994 52.392C135.738 51.784 135.546 51.32 135.418 51C135.322 51.32 135.162 51.784 134.938 52.392C134.714 53 134.426 53.656 134.074 54.36L129.85 63H122.122ZM169.144 63.48C165.592 63.48 162.776 62.52 160.696 60.6C158.648 58.68 157.624 56.056 157.624 52.728V27.96H164.824V52.68C164.824 54.152 165.192 55.288 165.928 56.088C166.696 56.856 167.768 57.24 169.144 57.24C170.488 57.24 171.544 56.856 172.312 56.088C173.08 55.288 173.464 54.152 173.464 52.68V27.96H180.664V52.728C180.664 56.024 179.624 58.648 177.544 60.6C175.496 62.52 172.696 63.48 169.144 63.48ZM202.725 63.48C200.261 63.48 198.117 63.064 196.293 62.232C194.469 61.4 193.061 60.232 192.069 58.728C191.077 57.224 190.581 55.448 190.581 53.4H197.781C197.781 54.584 198.229 55.528 199.125 56.232C200.053 56.904 201.301 57.24 202.869 57.24C204.373 57.24 205.541 56.904 206.373 56.232C207.237 55.56 207.669 54.632 207.669 53.448C207.669 52.424 207.349 51.544 206.709 50.808C206.069 50.072 205.173 49.576 204.021 49.32L200.469 48.504C197.493 47.8 195.173 46.504 193.509 44.616C191.877 42.696 191.061 40.36 191.061 37.608C191.061 35.56 191.525 33.784 192.453 32.28C193.413 30.744 194.757 29.56 196.485 28.728C198.213 27.896 200.261 27.48 202.629 27.48C206.213 27.48 209.045 28.376 211.125 30.168C213.237 31.928 214.293 34.312 214.293 37.32H207.093C207.093 36.2 206.693 35.32 205.893 34.68C205.125 34.04 204.005 33.72 202.533 33.72C201.157 33.72 200.101 34.04 199.365 34.68C198.629 35.288 198.261 36.168 198.261 37.32C198.261 38.344 198.549 39.224 199.125 39.96C199.733 40.664 200.581 41.144 201.669 41.4L205.413 42.264C208.517 42.968 210.869 44.248 212.469 46.104C214.069 47.928 214.869 50.264 214.869 53.112C214.869 55.16 214.357 56.968 213.333 58.536C212.341 60.104 210.933 61.32 209.109 62.184C207.317 63.048 205.189 63.48 202.725 63.48Z"/>
</mask>
<path d="M56.88 63V27.96H65.28L74.352 55.08C74.256 53.896 74.144 52.536 74.016 51C73.888 49.432 73.776 47.88 73.68 46.344C73.616 44.776 73.584 43.448 73.584 42.36V27.96H79.92V63H71.52L62.544 35.88C62.64 36.904 62.736 38.12 62.832 39.528C62.928 40.936 63.008 42.36 63.072 43.8C63.168 45.24 63.216 46.52 63.216 47.64V63H56.88ZM91.4212 63V27.96H113.021V34.104H98.4772V41.976H111.341V48.12H98.4772V56.856H113.021V63H91.4212ZM122.122 63L131.53 44.904L122.746 27.96H130.666L134.314 35.64C134.666 36.344 134.954 36.984 135.178 37.56C135.434 38.136 135.594 38.552 135.658 38.808C135.722 38.552 135.866 38.136 136.09 37.56C136.314 36.984 136.586 36.344 136.906 35.64L140.65 27.96H148.378L139.594 44.904L149.003 63H141.082L136.858 54.36C136.538 53.656 136.25 53 135.994 52.392C135.738 51.784 135.546 51.32 135.418 51C135.322 51.32 135.162 51.784 134.938 52.392C134.714 53 134.426 53.656 134.074 54.36L129.85 63H122.122ZM169.144 63.48C165.592 63.48 162.776 62.52 160.696 60.6C158.648 58.68 157.624 56.056 157.624 52.728V27.96H164.824V52.68C164.824 54.152 165.192 55.288 165.928 56.088C166.696 56.856 167.768 57.24 169.144 57.24C170.488 57.24 171.544 56.856 172.312 56.088C173.08 55.288 173.464 54.152 173.464 52.68V27.96H180.664V52.728C180.664 56.024 179.624 58.648 177.544 60.6C175.496 62.52 172.696 63.48 169.144 63.48ZM202.725 63.48C200.261 63.48 198.117 63.064 196.293 62.232C194.469 61.4 193.061 60.232 192.069 58.728C191.077 57.224 190.581 55.448 190.581 53.4H197.781C197.781 54.584 198.229 55.528 199.125 56.232C200.053 56.904 201.301 57.24 202.869 57.24C204.373 57.24 205.541 56.904 206.373 56.232C207.237 55.56 207.669 54.632 207.669 53.448C207.669 52.424 207.349 51.544 206.709 50.808C206.069 50.072 205.173 49.576 204.021 49.32L200.469 48.504C197.493 47.8 195.173 46.504 193.509 44.616C191.877 42.696 191.061 40.36 191.061 37.608C191.061 35.56 191.525 33.784 192.453 32.28C193.413 30.744 194.757 29.56 196.485 28.728C198.213 27.896 200.261 27.48 202.629 27.48C206.213 27.48 209.045 28.376 211.125 30.168C213.237 31.928 214.293 34.312 214.293 37.32H207.093C207.093 36.2 206.693 35.32 205.893 34.68C205.125 34.04 204.005 33.72 202.533 33.72C201.157 33.72 200.101 34.04 199.365 34.68C198.629 35.288 198.261 36.168 198.261 37.32C198.261 38.344 198.549 39.224 199.125 39.96C199.733 40.664 200.581 41.144 201.669 41.4L205.413 42.264C208.517 42.968 210.869 44.248 212.469 46.104C214.069 47.928 214.869 50.264 214.869 53.112C214.869 55.16 214.357 56.968 213.333 58.536C212.341 60.104 210.933 61.32 209.109 62.184C207.317 63.048 205.189 63.48 202.725 63.48Z" fill="url(#paint0_linear_6_24)"/>
<path d="M56.88 63H55.88V64H56.88V63ZM56.88 27.96V26.96H55.88V27.96H56.88ZM65.28 27.96L66.2283 27.6428L66 26.96H65.28V27.96ZM74.352 55.08L73.4037 55.3972L75.3487 54.9992L74.352 55.08ZM74.016 51L73.0193 51.0814L73.0195 51.083L74.016 51ZM73.68 46.344L72.6808 46.3848L72.6813 46.3956L72.6819 46.4064L73.68 46.344ZM73.584 27.96V26.96H72.584V27.96H73.584ZM79.92 27.96H80.92V26.96H79.92V27.96ZM79.92 63V64H80.92V63H79.92ZM71.52 63L70.5706 63.3142L70.7976 64H71.52V63ZM62.544 35.88L63.4934 35.5658L61.5484 35.9733L62.544 35.88ZM62.832 39.528L63.8297 39.46V39.46L62.832 39.528ZM63.072 43.8L62.073 43.8444L62.0735 43.8555L62.0742 43.8665L63.072 43.8ZM63.216 63V64H64.216V63H63.216ZM56.88 63H57.88V27.96H56.88H55.88V63H56.88ZM56.88 27.96V28.96H65.28V27.96V26.96H56.88V27.96ZM65.28 27.96L64.3317 28.2772L73.4037 55.3972L74.352 55.08L75.3003 54.7628L66.2283 27.6428L65.28 27.96ZM74.352 55.08L75.3487 54.9992C75.2527 53.8143 75.1406 52.4535 75.0125 50.917L74.016 51L73.0195 51.083C73.1474 52.6185 73.2593 53.9777 73.3553 55.1608L74.352 55.08ZM74.016 51L75.0127 50.9186C74.8852 49.3568 74.7736 47.8111 74.6781 46.2816L73.68 46.344L72.6819 46.4064C72.7784 47.9488 72.8908 49.5072 73.0193 51.0814L74.016 51ZM73.68 46.344L74.6792 46.3032C74.6155 44.7434 74.584 43.4299 74.584 42.36H73.584H72.584C72.584 43.4661 72.6165 44.8086 72.6808 46.3848L73.68 46.344ZM73.584 42.36H74.584V27.96H73.584H72.584V42.36H73.584ZM73.584 27.96V28.96H79.92V27.96V26.96H73.584V27.96ZM79.92 27.96H78.92V63H79.92H80.92V27.96H79.92ZM79.92 63V62H71.52V63V64H79.92V63ZM71.52 63L72.4694 62.6858L63.4934 35.5658L62.544 35.88L61.5946 36.1942L70.5706 63.3142L71.52 63ZM62.544 35.88L61.5484 35.9733C61.6433 36.9865 61.7387 38.1936 61.8343 39.596L62.832 39.528L63.8297 39.46C63.7333 38.0464 63.6367 36.8215 63.5396 35.7867L62.544 35.88ZM62.832 39.528L61.8343 39.596C61.9298 40.996 62.0093 42.4121 62.073 43.8444L63.072 43.8L64.071 43.7556C64.0067 42.3079 63.9262 40.876 63.8297 39.46L62.832 39.528ZM63.072 43.8L62.0742 43.8665C62.1691 45.2903 62.216 46.5474 62.216 47.64H63.216H64.216C64.216 46.4926 64.1669 45.1897 64.0698 43.7335L63.072 43.8ZM63.216 47.64H62.216V63H63.216H64.216V47.64H63.216ZM63.216 63V62H56.88V63V64H63.216V63ZM91.4212 63H90.4212V64H91.4212V63ZM91.4212 27.96V26.96H90.4212V27.96H91.4212ZM113.021 27.96H114.021V26.96H113.021V27.96ZM113.021 34.104V35.104H114.021V34.104H113.021ZM98.4772 34.104V33.104H97.4772V34.104H98.4772ZM98.4772 41.976H97.4772V42.976H98.4772V41.976ZM111.341 41.976H112.341V40.976H111.341V41.976ZM111.341 48.12V49.12H112.341V48.12H111.341ZM98.4772 48.12V47.12H97.4772V48.12H98.4772ZM98.4772 56.856H97.4772V57.856H98.4772V56.856ZM113.021 56.856H114.021V55.856H113.021V56.856ZM113.021 63V64H114.021V63H113.021ZM91.4212 63H92.4212V27.96H91.4212H90.4212V63H91.4212ZM91.4212 27.96V28.96H113.021V27.96V26.96H91.4212V27.96ZM113.021 27.96H112.021V34.104H113.021H114.021V27.96H113.021ZM113.021 34.104V33.104H98.4772V34.104V35.104H113.021V34.104ZM98.4772 34.104H97.4772V41.976H98.4772H99.4772V34.104H98.4772ZM98.4772 41.976V42.976H111.341V41.976V40.976H98.4772V41.976ZM111.341 41.976H110.341V48.12H111.341H112.341V41.976H111.341ZM111.341 48.12V47.12H98.4772V48.12V49.12H111.341V48.12ZM98.4772 48.12H97.4772V56.856H98.4772H99.4772V48.12H98.4772ZM98.4772 56.856V57.856H113.021V56.856V55.856H98.4772V56.856ZM113.021 56.856H112.021V63H113.021H114.021V56.856H113.021ZM113.021 63V62H91.4212V63V64H113.021V63ZM122.122 63L121.235 62.5387L120.476 64H122.122V63ZM131.531 44.904L132.418 45.3653L132.657 44.9047L132.418 44.4438L131.531 44.904ZM122.746 27.96V26.96H121.102L121.859 28.4202L122.746 27.96ZM130.666 27.96L131.57 27.5309L131.299 26.96H130.666V27.96ZM134.314 35.64L133.411 36.0691L133.416 36.0782L133.42 36.0872L134.314 35.64ZM135.178 37.56L134.246 37.9224L134.255 37.9445L134.265 37.9661L135.178 37.56ZM135.659 38.808L134.688 39.0505H136.629L135.659 38.808ZM136.907 35.64L136.008 35.2018L136.002 35.2139L135.996 35.2262L136.907 35.64ZM140.65 27.96V26.96H140.025L139.752 27.5218L140.65 27.96ZM148.379 27.96L149.266 28.4202L150.023 26.96H148.379V27.96ZM139.594 44.904L138.707 44.4438L138.468 44.9047L138.707 45.3653L139.594 44.904ZM149.003 63V64H150.649L149.89 62.5387L149.003 63ZM141.083 63L140.184 63.4392L140.458 64H141.083V63ZM136.858 54.36L135.948 54.7738L135.954 54.7866L135.96 54.7992L136.858 54.36ZM135.994 52.392L136.916 52.0039V52.0039L135.994 52.392ZM135.419 51L136.347 50.6286L135.284 47.9699L134.461 50.7127L135.419 51ZM134.938 52.392L134 52.0463V52.0463L134.938 52.392ZM134.075 54.36L133.18 53.9128L133.176 53.9208L134.075 54.36ZM129.851 63V64H130.475L130.749 63.4392L129.851 63ZM122.122 63L123.01 63.4613L132.418 45.3653L131.531 44.904L130.643 44.4427L121.235 62.5387L122.122 63ZM131.531 44.904L132.418 44.4438L123.634 27.4998L122.746 27.96L121.859 28.4202L130.643 45.3642L131.531 44.904ZM122.746 27.96V28.96H130.666V27.96V26.96H122.746V27.96ZM130.666 27.96L129.763 28.3891L133.411 36.0691L134.314 35.64L135.218 35.2109L131.57 27.5309L130.666 27.96ZM134.314 35.64L133.42 36.0872C133.762 36.7706 134.036 37.3818 134.246 37.9224L135.178 37.56L136.111 37.1976C135.873 36.5862 135.571 35.9174 135.209 35.1928L134.314 35.64ZM135.178 37.56L134.265 37.9661C134.521 38.5417 134.648 38.8873 134.688 39.0505L135.659 38.808L136.629 38.5655C136.541 38.2167 136.348 37.7303 136.092 37.1539L135.178 37.56ZM135.659 38.808L136.629 39.0505C136.676 38.8615 136.799 38.4972 137.023 37.9224L136.09 37.56L135.158 37.1976C134.934 37.7748 134.769 38.2425 134.688 38.5655L135.659 38.808ZM136.09 37.56L137.023 37.9224C137.238 37.3674 137.503 36.7449 137.817 36.0538L136.907 35.64L135.996 35.2262C135.67 35.9431 135.391 36.6006 135.158 37.1976L136.09 37.56ZM136.907 35.64L137.805 36.0782L141.549 28.3982L140.65 27.96L139.752 27.5218L136.008 35.2018L136.907 35.64ZM140.65 27.96V28.96H148.379V27.96V26.96H140.65V27.96ZM148.379 27.96L147.491 27.4998L138.707 44.4438L139.594 44.904L140.482 45.3642L149.266 28.4202L148.379 27.96ZM139.594 44.904L138.707 45.3653L148.115 63.4613L149.003 63L149.89 62.5387L140.482 44.4427L139.594 44.904ZM149.003 63V62H141.083V63V64H149.003V63ZM141.083 63L141.981 62.5608L137.757 53.9208L136.858 54.36L135.96 54.7992L140.184 63.4392L141.083 63ZM136.858 54.36L137.769 53.9462C137.452 53.2493 137.168 52.602 136.916 52.0039L135.994 52.392L135.073 52.7801C135.333 53.398 135.625 54.0627 135.948 54.7738L136.858 54.36ZM135.994 52.392L136.916 52.0039C136.661 51.3975 136.472 50.9401 136.347 50.6286L135.419 51L134.49 51.3714C134.621 51.6999 134.816 52.1705 135.073 52.7801L135.994 52.392ZM135.419 51L134.461 50.7127C134.374 51.0024 134.222 51.4433 134 52.0463L134.938 52.392L135.877 52.7377C136.103 52.1247 136.271 51.6376 136.376 51.2873L135.419 51ZM134.938 52.392L134 52.0463C133.791 52.6133 133.519 53.2351 133.18 53.9128L134.075 54.36L134.969 54.8072C135.334 54.0769 135.638 53.3867 135.877 52.7377L134.938 52.392ZM134.075 54.36L133.176 53.9208L128.952 62.5608L129.851 63L130.749 63.4392L134.973 54.7992L134.075 54.36ZM129.851 63V62H122.122V63V64H129.851V63ZM160.696 60.6L160.012 61.3296L160.017 61.3348L160.696 60.6ZM157.624 27.96V26.96H156.624V27.96H157.624ZM164.824 27.96H165.824V26.96H164.824V27.96ZM165.928 56.088L165.192 56.7651L165.206 56.7804L165.221 56.7951L165.928 56.088ZM172.312 56.088L173.019 56.7951L173.026 56.7879L173.033 56.7805L172.312 56.088ZM173.464 27.96V26.96H172.464V27.96H173.464ZM180.664 27.96H181.664V26.96H180.664V27.96ZM177.544 60.6L178.228 61.3295L178.228 61.3292L177.544 60.6ZM169.144 63.48V62.48C165.776 62.48 163.225 61.5742 161.374 59.8652L160.696 60.6L160.017 61.3348C162.326 63.4658 165.407 64.48 169.144 64.48V63.48ZM160.696 60.6L161.38 59.8705C159.571 58.1745 158.624 55.8353 158.624 52.728H157.624H156.624C156.624 56.2767 157.725 59.1855 160.012 61.3295L160.696 60.6ZM157.624 52.728H158.624V27.96H157.624H156.624V52.728H157.624ZM157.624 27.96V28.96H164.824V27.96V26.96H157.624V27.96ZM164.824 27.96H163.824V52.68H164.824H165.824V27.96H164.824ZM164.824 52.68H163.824C163.824 54.3127 164.234 55.7234 165.192 56.7651L165.928 56.088L166.664 55.4109C166.15 54.8526 165.824 53.9913 165.824 52.68H164.824ZM165.928 56.088L165.221 56.7951C166.223 57.7974 167.577 58.24 169.144 58.24V57.24V56.24C167.959 56.24 167.169 55.9146 166.635 55.3809L165.928 56.088ZM169.144 57.24V58.24C170.686 58.24 172.021 57.7931 173.019 56.7951L172.312 56.088L171.605 55.3809C171.067 55.9189 170.289 56.24 169.144 56.24V57.24ZM172.312 56.088L173.033 56.7805C174.032 55.7398 174.464 54.3232 174.464 52.68H173.464H172.464C172.464 53.9807 172.127 54.8362 171.59 55.3955L172.312 56.088ZM173.464 52.68H174.464V27.96H173.464H172.464V52.68H173.464ZM173.464 27.96V28.96H180.664V27.96V26.96H173.464V27.96ZM180.664 27.96H179.664V52.728H180.664H181.664V27.96H180.664ZM180.664 52.728H179.664C179.664 55.7948 178.706 58.1378 176.859 59.8708L177.544 60.6L178.228 61.3292C180.541 59.1582 181.664 56.2532 181.664 52.728H180.664ZM177.544 60.6L176.86 59.8705C175.043 61.574 172.512 62.48 169.144 62.48V63.48V64.48C172.88 64.48 175.949 63.466 178.228 61.3295L177.544 60.6ZM196.293 62.232L196.708 61.3222V61.3222L196.293 62.232ZM192.069 58.728L191.234 59.2786V59.2786L192.069 58.728ZM190.581 53.4V52.4H189.581V53.4H190.581ZM197.781 53.4H198.781V52.4H197.781V53.4ZM199.125 56.232L198.507 57.0183L198.523 57.0304L198.538 57.0419L199.125 56.232ZM206.373 56.232L205.759 55.4426L205.752 55.4483L205.745 55.4541L206.373 56.232ZM204.021 49.32L203.797 50.2946L203.804 50.2962L204.021 49.32ZM200.469 48.504L200.239 49.4772L200.245 49.4786L200.469 48.504ZM193.509 44.616L192.747 45.2636L192.753 45.2705L192.759 45.2772L193.509 44.616ZM192.453 32.28L191.605 31.75L191.602 31.7549L192.453 32.28ZM196.485 28.728L196.051 27.827V27.827L196.485 28.728ZM211.125 30.168L210.472 30.9256L210.479 30.931L210.485 30.9362L211.125 30.168ZM214.293 37.32V38.32H215.293V37.32H214.293ZM207.093 37.32H206.093V38.32H207.093V37.32ZM205.893 34.68L205.253 35.4482L205.26 35.4546L205.268 35.4609L205.893 34.68ZM199.365 34.68L200.002 35.451L200.012 35.4429L200.021 35.4346L199.365 34.68ZM199.125 39.96L198.337 40.5763L198.352 40.5953L198.368 40.6136L199.125 39.96ZM201.669 41.4L201.44 42.3734L201.444 42.3744L201.669 41.4ZM205.413 42.264L205.188 43.2384L205.192 43.2392L205.413 42.264ZM212.469 46.104L211.712 46.757L211.717 46.7634L212.469 46.104ZM213.333 58.536L212.496 57.9892L212.492 57.9953L212.488 58.0014L213.333 58.536ZM209.109 62.184L208.681 61.2802L208.675 61.2832L209.109 62.184ZM202.725 63.48V62.48C200.372 62.48 198.375 62.0828 196.708 61.3222L196.293 62.232L195.878 63.1418C197.859 64.0452 200.15 64.48 202.725 64.48V63.48ZM196.293 62.232L196.708 61.3222C195.035 60.5591 193.781 59.5073 192.904 58.1774L192.069 58.728L191.234 59.2786C192.341 60.9567 193.903 62.2409 195.878 63.1418L196.293 62.232ZM192.069 58.728L192.904 58.1774C192.034 56.8584 191.581 55.2798 191.581 53.4H190.581H189.581C189.581 55.6162 190.12 57.5896 191.234 59.2786L192.069 58.728ZM190.581 53.4V54.4H197.781V53.4V52.4H190.581V53.4ZM197.781 53.4H196.781C196.781 54.8769 197.359 56.1163 198.507 57.0183L199.125 56.232L199.743 55.4457C199.099 54.9397 198.781 54.2911 198.781 53.4H197.781ZM199.125 56.232L198.538 57.0419C199.69 57.8757 201.166 58.24 202.869 58.24V57.24V56.24C201.436 56.24 200.416 55.9323 199.712 55.4221L199.125 56.232ZM202.869 57.24V58.24C204.51 58.24 205.931 57.8741 207.001 57.0099L206.373 56.232L205.745 55.4541C205.151 55.9339 204.236 56.24 202.869 56.24V57.24ZM206.373 56.232L206.987 57.0214C208.117 56.1427 208.669 54.9115 208.669 53.448H207.669H206.669C206.669 54.3525 206.357 54.9772 205.759 55.4426L206.373 56.232ZM207.669 53.448H208.669C208.669 52.196 208.27 51.0795 207.464 50.1518L206.709 50.808L205.954 51.4642C206.428 52.0085 206.669 52.652 206.669 53.448H207.669ZM206.709 50.808L207.464 50.1518C206.656 49.2228 205.554 48.6362 204.238 48.3438L204.021 49.32L203.804 50.2962C204.792 50.5158 205.482 50.9212 205.954 51.4642L206.709 50.808ZM204.021 49.32L204.245 48.3454L200.693 47.5294L200.469 48.504L200.245 49.4786L203.797 50.2946L204.021 49.32ZM200.469 48.504L200.699 47.5309C197.881 46.8641 195.759 45.6567 194.259 43.9548L193.509 44.616L192.759 45.2772C194.587 47.3513 197.105 48.7359 200.239 49.4771L200.469 48.504ZM193.509 44.616L194.271 43.9684C192.807 42.2463 192.061 40.1462 192.061 37.608H191.061H190.061C190.061 40.5738 190.947 43.1457 192.747 45.2636L193.509 44.616ZM191.061 37.608H192.061C192.061 35.7155 192.488 34.1276 193.304 32.8051L192.453 32.28L191.602 31.7549C190.562 33.4404 190.061 35.4045 190.061 37.608H191.061ZM192.453 32.28L193.301 32.81C194.155 31.4439 195.351 30.384 196.919 29.629L196.485 28.728L196.051 27.827C194.163 28.736 192.671 30.0441 191.605 31.75L192.453 32.28ZM196.485 28.728L196.919 29.629C198.484 28.8756 200.377 28.48 202.629 28.48V27.48V26.48C200.145 26.48 197.942 26.9164 196.051 27.827L196.485 28.728ZM202.629 27.48V28.48C206.048 28.48 208.623 29.3326 210.472 30.9256L211.125 30.168L211.778 29.4104C209.467 27.4194 206.378 26.48 202.629 26.48V27.48ZM211.125 30.168L210.485 30.9362C212.346 32.4868 213.293 34.5771 213.293 37.32H214.293H215.293C215.293 34.0469 214.128 31.3692 211.765 29.3998L211.125 30.168ZM214.293 37.32V36.32H207.093V37.32V38.32H214.293V37.32ZM207.093 37.32H208.093C208.093 35.9286 207.579 34.7482 206.518 33.8991L205.893 34.68L205.268 35.4609C205.807 35.8918 206.093 36.4714 206.093 37.32H207.093ZM205.893 34.68L206.533 33.9118C205.517 33.0653 204.132 32.72 202.533 32.72V33.72V34.72C203.878 34.72 204.733 35.0147 205.253 35.4482L205.893 34.68ZM202.533 33.72V32.72C201.014 32.72 199.689 33.0728 198.709 33.9254L199.365 34.68L200.021 35.4346C200.513 35.0072 201.3 34.72 202.533 34.72V33.72ZM199.365 34.68L198.728 33.909C197.714 34.7464 197.261 35.9377 197.261 37.32H198.261H199.261C199.261 36.3983 199.544 35.8296 200.002 35.451L199.365 34.68ZM198.261 37.32H197.261C197.261 38.5447 197.61 39.6473 198.337 40.5763L199.125 39.96L199.913 39.3437C199.488 38.8007 199.261 38.1433 199.261 37.32H198.261ZM199.125 39.96L198.368 40.6136C199.14 41.5072 200.189 42.0791 201.44 42.3734L201.669 41.4L201.898 40.4266C200.973 40.2089 200.326 39.8208 199.882 39.3064L199.125 39.96ZM201.669 41.4L201.444 42.3744L205.188 43.2384L205.413 42.264L205.638 41.2896L201.894 40.4256L201.669 41.4ZM205.413 42.264L205.192 43.2392C208.15 43.9101 210.288 45.1055 211.712 46.7569L212.469 46.104L213.226 45.4511C211.45 43.3905 208.884 42.0259 205.634 41.2888L205.413 42.264ZM212.469 46.104L211.717 46.7634C213.13 48.3741 213.869 50.4621 213.869 53.112H214.869H215.869C215.869 50.0659 215.008 47.4819 213.221 45.4446L212.469 46.104ZM214.869 53.112H213.869C213.869 54.9847 213.404 56.599 212.496 57.9892L213.333 58.536L214.17 59.0828C215.31 57.337 215.869 55.3353 215.869 53.112H214.869ZM213.333 58.536L212.488 58.0014C211.606 59.3953 210.349 60.4899 208.681 61.2803L209.109 62.184L209.537 63.0877C211.517 62.1501 213.076 60.8127 214.178 59.0706L213.333 58.536ZM209.109 62.184L208.675 61.2832C207.047 62.0682 205.074 62.48 202.725 62.48V63.48V64.48C205.304 64.48 207.587 64.0278 209.543 63.0848L209.109 62.184Z" fill="black" mask="url(#path-1-outside-1_6_24)"/>
<path d="M208.299 18.6429C207.684 18.8154 207.045 18.8675 206.383 18.7991C205.729 18.7276 205.06 18.552 204.376 18.2723C203.698 17.9949 202.956 17.6436 202.149 17.2182L207.102 5.11444L208.729 5.78021L206.868 10.3273C207.392 10.067 208.007 9.97996 208.713 10.0661C208.978 10.0986 209.235 10.166 209.485 10.2681C209.74 10.3724 209.986 10.5049 210.224 10.6656C210.465 10.821 210.687 11.0132 210.891 11.2422C211.1 11.4734 211.279 11.7398 211.428 12.0413C211.577 12.3428 211.677 12.6847 211.73 13.067C211.855 13.8906 211.731 14.7579 211.358 15.669C210.987 16.5746 210.539 17.2522 210.013 17.7018C209.493 18.1535 208.921 18.4673 208.299 18.6429ZM204.273 16.6916C204.407 16.7971 204.696 16.9409 205.141 17.1228C205.586 17.3048 206.029 17.4133 206.47 17.4484C206.912 17.4835 207.325 17.4247 207.711 17.2722C208.519 16.9511 209.15 16.2374 209.603 15.1311C210.155 13.7809 210.124 12.736 209.509 11.9967C209.287 11.7349 209.029 11.544 208.736 11.4242C208.443 11.3044 208.173 11.238 207.925 11.2252C207.677 11.2123 207.45 11.2268 207.242 11.2687C206.847 11.3537 206.539 11.4938 206.32 11.689L204.273 16.6916ZM215.606 22.8776C212.537 21.6215 211.616 19.494 212.843 16.4952C213.371 15.2046 214.22 14.3457 215.389 13.9187C216.442 13.5266 217.459 13.5314 218.441 13.9331C219.509 14.3703 220.198 15.07 220.507 16.0321C220.792 16.9277 220.706 17.9341 220.249 19.0512L219.99 19.6856L214.442 17.4154C213.814 18.95 214.056 20.1445 215.169 20.9988C215.434 21.2022 215.876 21.4304 216.494 21.6834C217.118 21.9386 217.762 22.1042 218.427 22.1802L217.865 23.5549C217.211 23.4518 216.458 23.226 215.606 22.8776ZM218.852 17.8241C219.065 17.3035 219.101 16.8055 218.96 16.3299C218.793 15.7802 218.413 15.3844 217.822 15.1425C217.199 14.8873 216.611 14.8777 216.058 15.1138C215.549 15.3361 215.187 15.7103 214.972 16.2363L218.852 17.8241ZM223.629 24.5081C223.781 24.6464 224.039 24.7899 224.402 24.9386C224.765 25.0873 225.087 25.1682 225.366 25.1813L224.834 26.4828C224.709 26.4633 224.537 26.4119 224.318 26.3285L223.798 26.1351C223.685 26.0885 223.598 26.053 223.538 26.0285C222.492 25.6002 221.859 24.9424 221.639 24.0549C221.464 23.3376 221.563 22.5234 221.936 21.6123L223.564 17.6347L222.36 17.142L222.673 16.3774L224.073 16.3901L225.316 14.4675L226.552 14.9735L225.7 17.0559L228.303 18.1211L227.794 19.3657L225.191 18.3004L223.566 22.27C223.131 23.3328 223.152 24.0789 223.629 24.5081ZM228.018 26.0576C227.966 25.6752 227.971 25.2531 228.033 24.7911C228.101 24.3314 228.272 23.7653 228.548 23.0929C228.823 22.4205 229.219 21.8611 229.738 21.4147C230.264 20.9652 230.834 20.6541 231.449 20.4817C232.641 20.1527 233.909 20.2634 235.254 20.8138C235.954 21.1001 236.476 21.3327 236.82 21.5117C236.82 21.5117 237.072 21.6465 237.576 21.916L234.141 30.3106L232.677 29.7114L233.008 28.7168C232.505 29.0174 231.877 29.137 231.123 29.0756C230.835 29.0526 230.555 28.9856 230.284 28.8747C230.018 28.7659 229.766 28.6312 229.528 28.4704C229.29 28.3097 229.067 28.1137 228.857 27.8824C228.653 27.6534 228.477 27.3881 228.328 27.0866C228.182 26.7797 228.078 26.4367 228.018 26.0576ZM235.46 22.4459C235.131 22.2605 234.792 22.0968 234.445 21.9548C234.104 21.815 233.712 21.7275 233.271 21.6925C232.831 21.652 232.42 21.7053 232.037 21.8524C231.24 22.1595 230.615 22.8688 230.16 23.9805C229.729 25.0326 229.657 25.9117 229.944 26.618C230.166 27.1453 230.539 27.5166 231.065 27.7318C231.743 28.0092 232.402 27.9911 233.044 27.6774C233.203 27.597 233.327 27.518 233.416 27.4404L235.46 22.4459Z" fill="#9F9FA9"/>
<path d="M24.4347 26.2218C28.7305 21.9261 35.6956 21.9261 39.9914 26.2218C44.2871 30.5176 44.2871 37.4827 39.9914 41.7785L37.1632 44.6066L39.9914 47.4347C44.2871 51.7305 44.2871 58.6956 39.9914 62.9914C35.6956 67.2871 28.7305 67.2871 24.4347 62.9914L21.6066 60.1632L18.7785 62.9914C14.4827 67.2871 7.51759 67.2871 3.22183 62.9914C-1.07394 58.6956 -1.07394 51.7305 3.22183 47.4347L6.04995 44.6066L3.22183 41.7785C-1.07394 37.4827 -1.07394 30.5176 3.22183 26.2218C7.51759 21.9261 14.4827 21.9261 18.7785 26.2218L21.6066 29.05L24.4347 26.2218Z" fill="url(#paint1_linear_6_24)"/>
<defs>
<linearGradient id="paint0_linear_6_24" x1="136" y1="14" x2="136" y2="66" gradientUnits="userSpaceOnUse">
<stop offset="0.384615" stop-color="white"/>
<stop offset="1" stop-color="#9F9FA9"/>
</linearGradient>
<linearGradient id="paint1_linear_6_24" x1="3.22167" y1="62.9912" x2="39.9912" y2="26.2217" gradientUnits="userSpaceOnUse">
<stop stop-color="#372AAC"/>
<stop offset="1" stop-color="#161233"/>
</linearGradient>
</defs>
</svg>
